<svg width="124" height="123" viewBox="0 0 124 123" fill="none" xmlns="http://www.w3.org/2000/svg">
<path d="M120.281 61.4113C120.281 93.5988 94.1875 119.693 62 119.693C29.8125 119.693 3.71875 93.5988 3.71875 61.4113C3.71875 29.229 29.8125 3.13521 62 3.13521C94.1875 3.13521 120.281 29.229 120.281 61.4113Z" stroke="black" stroke-width="6.024" stroke-miterlimit="10"/>
<path d="M61.9998 102.224C56.7759 102.224 52.5415 97.9894 52.5415 92.7654C52.5415 87.5415 56.7759 83.3071 61.9998 83.3071C67.2238 83.3071 71.4582 87.5415 71.4582 92.7654C71.4582 97.9894 67.2238 102.224 61.9998 102.224Z" stroke="black" stroke-width="6.024" stroke-miterlimit="10"/>
<path d="M78.3074 27.4894L69.1615 69.9113C68.7917 71.6352 67.2657 72.8644 65.5053 72.8644H58.4949C56.7344 72.8644 55.2084 71.6352 54.8386 69.9113L45.6928 27.4894C45.1876 25.1613 46.9636 22.9581 49.349 22.9581H74.6511C77.0365 22.9581 78.8126 25.1613 78.3074 27.4894Z" stroke="black" stroke-width="6.024" stroke-miterlimit="10"/>
</svg>
