<svg width="1920" height="1071" viewBox="0 0 1920 1071" fill="none" xmlns="http://www.w3.org/2000/svg">
<path d="M1942.94 524.57C1906.03 517.42 1867.7 513.03 1828.46 511C1828.32 510.24 1828.17 509.48 1828.02 508.72H1828.04C1808.1 377.36 1751.55 244.14 1636.32 169.05C1522.21 87.7 1348.35 94.32 1254.26 204.61C1151.87 321.54 1146.37 484.1 1205.99 618.02C1180.84 626.69 1156.78 635.47 1134.05 644.19C1102.1 653.53 1067.94 666.6 1032.09 682.11C943.93 409.95 887.21 84.94 539.94 12.35C500.83 4.17 462.77 0.199997 425.96 0.199997C210.1 0.199997 37.44 136.88 -51.86 363.78C-52.03 364.2 -52.2 364.62 -52.36 365.04C-53.29 367.49 -54.3 370.38 -55.22 372.83C-55.28 373.117 -55.34 373.4 -55.4 373.68C-94.27 474.55 -97.25 604.94 -51.86 724.06C-23.61 798.18 23.37 867.94 92.08 923.5C263.16 1061.45 475.44 993.97 661.83 908.73C684.04 980.41 707.38 1053.01 737.07 1121.47H1759.08C1786.98 1059.16 1808.61 991.28 1823.55 919.82C1849.72 794.62 1852.83 669.08 1835.26 550.98C1872.18 553.81 1908.18 558.99 1942.94 566.86V524.57ZM124.94 883.36C120.97 880.09 118.08 877.5 109.27 868.53C-59.01 697.2 82.54 368.81 313.34 414.53C518.07 457.32 582.98 653.42 648.85 866.69C456.99 950.63 265.04 998.69 124.94 883.36ZM1290.61 237.22C1381.45 131.17 1548.45 145.76 1644.74 236.8C1723.75 307.25 1761.68 406.62 1778.38 509.66C1599.59 509.16 1407.37 552.56 1249.89 603.37C1197.18 483.62 1201.32 339.29 1290.61 237.22ZM1772.11 755.68C1724.57 983.11 1562.23 1110.96 1357.64 1068.19C1181.76 1031.43 1104.59 892.01 1046.58 725.36C1103.36 701.13 1163.28 677.53 1225.01 655.87C1280.05 753.66 1371.48 830.46 1485.05 852.89C1485.05 852.89 1492.78 814.98 1492.79 814.98C1395.82 793.6 1317.18 726.19 1268.77 640.95C1437.8 585.02 1617.87 545.54 1782.99 548.54C1789.27 618.99 1785.94 689.56 1772.11 755.68Z" fill="#55E09D"/>
</svg>
