<svg width="1440" height="2227" viewBox="0 0 1440 2227" fill="none" xmlns="http://www.w3.org/2000/svg">
<path d="M1426.36 1479.3C1364.02 1587.66 1258.23 1655.34 1143.15 1699.53C1100.53 1492.84 1004.1 1281.36 907.375 1111.68C1033.04 1021.81 1200.79 991.599 1340.33 1070.15C1484.84 1149.52 1508.31 1346.04 1426.36 1479.3ZM857.474 1751.85C583.156 1751.85 396.193 1595.12 396.193 1348.34C396.193 1136.23 538.661 1013.37 717.229 906.078C758.969 965.896 800.708 1029.44 840.682 1095.59C740.979 1182.83 674.271 1306.95 675.792 1443.59C675.792 1443.59 721.469 1443.36 721.474 1443.37C722.76 1326.15 781.677 1219.03 868.484 1142.49C973.932 1324.31 1062.89 1522.81 1099.31 1714.33C1019.47 1738.59 937.177 1751.85 857.474 1751.85ZM312.015 -120.896C314.833 -126.266 317.125 -130.24 325.364 -142.589C482.713 -378.453 896.422 -294.198 899.344 -16.4274C899.344 230.479 688.448 352.88 457.911 480.505C314.562 279.067 212.583 68.8538 312.015 -120.896ZM1369.24 1020.25C1209.35 930.161 1020.2 963.198 879.838 1064.47C863.734 1037.49 847.76 1011.69 832.187 987.531C813.693 952.896 790.193 916.547 763.64 878.922C1056.9 711.265 1418.86 567.213 1418.86 148.291C1418.86 -176.136 1201.26 -394.802 868.198 -451.016C865.135 -451.495 861.557 -451.959 858.489 -452.438H857.474C653.14 -485.787 381.823 -391.198 257.693 -149.188C139.588 81.8643 268.859 310.88 412.396 505.692C147.62 652.588 -126.38 817.333 -126.38 1192.09C-126.38 1631.33 244.479 1850.95 680.213 1850.95C831.229 1850.95 977.031 1824.16 1109.28 1775.31C1129.94 1933.56 1111.26 2085.17 1032.13 2216.37C912.521 2403.75 645.021 2449.37 486.297 2319.8C480.812 2315.05 475.297 2309.49 469.953 2303.4C473.76 2303.85 477.495 2304.55 481.432 2304.55C534.755 2304.55 577.984 2261.32 577.984 2208C577.984 2154.68 534.755 2111.44 481.432 2111.44C460.781 2111.44 441.745 2118.05 426.047 2129.09L425.995 2129.03C425.005 2129.75 424.271 2130.59 423.323 2131.34C412.838 2139.3 404.167 2149.31 397.661 2160.84C396.255 2163.32 394.765 2165.75 393.604 2168.31C392.526 2170.69 391.724 2173.18 390.838 2175.66C389.708 2178.82 388.672 2181.98 387.864 2185.23C387.349 2187.36 386.896 2189.49 386.526 2191.67C376.12 2249.11 412.375 2317.31 455.583 2353.41C576.302 2460.27 737.719 2472.91 893.672 2404.84C893.672 2404.84 1079.93 2321.03 1135.73 2109.08L1135.14 2109.96C1170.94 2002.88 1173.13 1882 1153.78 1757.73C1154.62 1757.37 1155.51 1757.07 1156.35 1756.71C1156.35 1756.72 1156.4 1756.83 1156.4 1756.83C1303.39 1702.05 1443.68 1604.52 1502.62 1453.21C1569.08 1301.69 1519.43 1102.35 1369.24 1020.25Z" fill="#00E397"/>
</svg>
