<svg width="359" height="359" viewBox="0 0 359 359" fill="none" xmlns="http://www.w3.org/2000/svg">
<path d="M288.589 358.823H70.0521C31.4584 358.823 0.166687 327.536 0.166687 288.937V70.401C0.166687 31.802 31.4584 0.510376 70.0521 0.510376H288.589C327.193 0.510376 358.479 31.802 358.479 70.401V288.937C358.479 327.536 327.193 358.823 288.589 358.823Z" fill="#00E397"/>
<path d="M236.25 228.818C230.526 238.771 220.807 244.99 210.234 249.047C206.318 230.063 197.458 210.635 188.578 195.047C200.12 186.792 215.526 184.016 228.349 191.229C241.625 198.521 243.781 216.573 236.25 228.818ZM183.99 253.854C158.792 253.854 141.62 239.458 141.62 216.786C141.62 197.302 154.703 186.016 171.109 176.161C174.943 181.651 178.776 187.495 182.448 193.568C173.292 201.583 167.162 212.984 167.302 225.536L171.495 225.516C171.62 214.75 177.026 204.906 185.005 197.875C194.693 214.578 202.859 232.813 206.208 250.406C198.87 252.635 191.313 253.854 183.99 253.854ZM133.885 81.8177C134.141 81.3229 134.354 80.9583 135.109 79.8281C149.563 58.1615 187.568 65.8958 187.839 91.4167C187.839 114.099 168.464 125.339 147.287 137.063C134.12 118.563 124.75 99.25 133.885 81.8177ZM231.005 186.646C216.313 178.37 198.938 181.406 186.047 190.708C184.568 188.229 183.099 185.859 181.672 183.641C179.969 180.458 177.813 177.12 175.37 173.661C202.313 158.26 235.563 145.031 235.563 106.547C235.563 76.7448 215.573 56.6563 184.974 51.4948C184.693 51.4479 184.365 51.4063 184.083 51.3646H183.99C165.219 48.2969 140.297 56.9896 128.896 79.2188C118.047 100.448 129.917 121.484 143.104 139.38C118.781 152.875 93.6146 168.005 93.6146 202.432C93.6146 242.786 127.677 262.958 167.708 262.958C181.583 262.958 194.974 260.495 207.125 256.01C209.021 270.547 207.307 284.474 200.037 296.526C189.047 313.74 164.474 317.932 149.896 306.026C149.391 305.594 148.885 305.083 148.396 304.521C148.745 304.563 149.083 304.625 149.448 304.625C154.344 304.625 158.318 300.656 158.318 295.755C158.318 290.859 154.344 286.885 149.448 286.885C147.552 286.885 145.802 287.495 144.359 288.51L144.354 288.505C144.266 288.568 144.198 288.646 144.109 288.714C143.146 289.448 142.349 290.365 141.75 291.427C141.625 291.651 141.484 291.875 141.38 292.115C141.281 292.328 141.203 292.563 141.125 292.786C141.021 293.078 140.927 293.37 140.854 293.667C140.807 293.859 140.766 294.057 140.729 294.255C139.771 299.536 143.104 305.802 147.073 309.115C158.162 318.932 172.99 320.094 187.318 313.839C187.318 313.839 204.427 306.141 209.552 286.672L209.495 286.75C212.787 276.917 212.99 265.813 211.208 254.396C211.287 254.359 211.37 254.333 211.448 254.302L211.453 254.313C224.953 249.281 237.844 240.318 243.255 226.422C249.359 212.505 244.802 194.188 231.005 186.646Z" fill="black"/>
</svg>
