<svg width="371" height="126" viewBox="0 0 371 126" fill="none" xmlns="http://www.w3.org/2000/svg">
<path d="M212.2 82.35C212.2 92.01 219.52 98.14 230.26 98.14C233.92 98.14 237.72 97.43 241.34 96.14L242.16 98.25C236.46 100.67 230.02 102.02 223.32 102.02C206.26 102.02 191.75 93.42 191.75 76.23C191.75 47.85 231.9 50.24 231.9 28.93C231.9 28.99 231.9 28.87 231.9 28.93C231.79 18.06 215.59 14.76 209.43 23.99C209.11 24.47 209.02 24.63 208.91 24.84L207.68 24.5L206.79 23.74C211.65 14.27 222.27 10.56 230.27 11.87H230.31C230.43 11.89 230.57 11.91 230.69 11.93C243.73 14.13 252.24 22.69 252.24 35.39C252.24 62.95 212.21 60.12 212.21 82.36L212.2 82.35Z" fill="black"/>
<path d="M0.359985 4.92H21.07V99.62H0.359985V4.92ZM80.79 99.62H57.18L23.09 49.75L70.94 4.93H74.22L39.12 37.76L80.79 99.63V99.62Z" fill="black"/>
<path d="M88.12 99.62V4.92H108.07V99.62H88.12Z" fill="black"/>
<path d="M182.08 53.16V99.62H164.4L163.14 86.87C159.23 95.33 150.14 100.89 139.78 100.89C126.78 100.89 118.19 92.94 118.19 81.19C118.19 70.08 129.81 62.76 147.48 62.76H162.13V52.03C162.13 40.54 155.44 33.22 144.96 33.22C138.14 33.22 130.06 36.38 124.38 41.05L123.5 40.04C130.44 33.85 142.06 29.81 152.92 29.81C170.47 29.81 182.09 39.03 182.09 53.17L182.08 53.16ZM162.13 84.22V64.78H151.9C144.2 64.78 139.15 70.84 139.15 80.31C139.15 89.78 143.06 95.71 148.75 95.71C153.8 95.71 159.23 91.04 162.13 84.22Z" fill="black"/>
<path d="M274.87 21.34C268.05 21.34 263.63 17.17 263.63 10.73C263.63 4.29 268.05 0.119995 274.87 0.119995C281.69 0.119995 286.11 4.29 286.11 10.73C286.11 17.17 281.69 21.34 274.87 21.34ZM264.9 99.62V31.06H284.85V99.62H264.9Z" fill="black"/>
<path d="M300.9 1.14H320.85V99.62H300.9V1.14ZM370.1 99.62H347.75L322.75 62.25L361.26 31.06H364.54L338.78 51.89L370.09 99.62H370.1Z" fill="black"/>
<path d="M223.14 86.08C223 73.07 238.63 62.94 250.28 69.51C256.16 72.72 258.1 80.53 255.5 86.46C253.19 92.38 247.7 96.2 241.95 98.34L241.12 96.22C245.75 94.49 250.02 91.81 252.52 87.47C255.73 82.25 254.81 74.56 249.15 71.45C239.01 65.74 225.05 74.69 224.93 86.06H223.14V86.08Z" fill="black"/>
<path d="M215.54 119.78C217.628 119.78 219.32 118.088 219.32 116C219.32 113.912 217.628 112.22 215.54 112.22C213.452 112.22 211.76 113.912 211.76 116C211.76 118.088 213.452 119.78 215.54 119.78Z" fill="black"/>
<path d="M229.27 68.23C222.83 56.18 201.47 39.04 208.91 24.84L206.78 23.73C200.84 35.34 210.87 46.82 217.55 55.51C229.24 69.75 248.1 98.08 237.1 116.33C232.42 123.66 221.95 125.45 215.73 120.38C214.12 118.99 212.41 115.91 214.42 114.35L213.37 112.91C210.27 115.19 212.14 119.7 214.53 121.69C219.26 125.87 225.57 126.37 231.68 123.7C231.68 123.7 238.97 120.42 241.15 112.12L241.13 112.15C245.67 98.56 236.42 79.31 229.27 68.22V68.23Z" fill="black"/>
</svg>
